<svg t="1784075828355" class="icon" viewBox="0 0 1024 1024" version="1.1" xmlns="http://www.w3.org/2000/svg" p-id="244614"><path d="M498.684 921.362H181.642c-54.919-0.099-99.443-44.542-99.642-99.46V211.55c0.1-54.99 44.653-99.542 99.642-99.642H797.61c54.99 0.1 99.542 44.652 99.642 99.642v305.085c0 15.009-12.167 27.175-27.175 27.175-15.009 0-31.686-12.166-31.686-27.175V220.572c0-12.012-0.261-23.532-8.755-32.026a45.292 45.292 0 0 0-32.026-13.266H181.642a45.292 45.292 0 0 0-32.026 13.266c-8.494 8.494-8.755 20.014-8.755 32.026v601.33c0 12.012 4.772 19.02 13.266 27.515 8.494 8.494 15.503 13.265 27.515 13.265h317.042c15.009 0 27.175 16.678 27.175 31.686 0 15.009-12.166 27.176-27.175 27.176v-0.182z" fill="#2c2c2c" p-id="244615"></path><path d="M788.552 414.022H118.233c-15.008 0-27.175-14.138-27.175-31.577 0-17.44 12.167-31.578 27.175-31.578h670.319c15.008 0 27.175 14.138 27.175 31.578 0 17.44-12.167 31.577-27.175 31.577zM344.584 296.517c-8.375 0-16.407-2.863-22.33-7.96-5.921-5.096-9.248-12.008-9.248-19.215V88.175c0-15.008 14.138-27.175 31.578-27.175 17.44 0 31.577 12.167 31.577 27.175v181.167c0 7.207-3.327 14.12-9.249 19.216-5.922 5.096-13.954 7.96-22.328 7.96z m289.867 0c-8.375 0-16.407-2.863-22.329-7.96-5.922-5.096-9.249-12.008-9.249-19.215V88.175c0-15.008 14.138-27.175 31.578-27.175 17.44 0 31.577 12.167 31.577 27.175v181.167c0 7.207-3.327 14.12-9.249 19.216-5.921 5.096-13.953 7.96-22.328 7.96z" fill="#2c2c2c" p-id="244616"></path><path d="M498.684 613.306H246.681c-15.009 0-27.175-14.138-27.175-31.578 0-17.44 12.166-31.577 27.175-31.577h252.003c15.009 0 27.175 14.138 27.175 31.577 0 17.44-12.166 31.578-27.175 31.578zM371.867 740.123H246.681c-15.009 0-27.175-14.138-27.175-31.578 0-17.44 12.166-31.577 27.175-31.577h125.186c15.009 0 27.175 14.138 27.175 31.577 0 17.44-12.166 31.578-27.175 31.578z" fill="#2c2c2c" p-id="244617"></path><path d="M734.201 963.212c-7.005 0-13.89-0.362-20.653-1.087l-15.58-1.45-6.522-14.13c-16.305-36.234-27.537-40.4-63.046-26.632l-14.856 5.797-12.32-10.145a209.973 209.973 0 0 1-27.537-27.537L563 876.252l5.797-14.856c13.769-36.233 9.058-46.741-26.632-63.046l-14.312-6.522-1.45-15.58a193.75 193.75 0 0 1-1.086-20.654c0-7.005 0.362-13.889 1.087-20.653l1.45-15.58 14.311-6.522c36.234-16.305 40.4-27.537 26.632-63.046l-5.797-14.856 10.145-12.32a209.973 209.973 0 0 1 27.537-27.537l12.32-10.145 14.855 5.797c36.234 13.77 46.741 9.059 63.046-26.631l6.522-14.312 15.58-1.45a217.4 217.4 0 0 1 41.126 0l15.58 1.45 6.522 14.312c16.305 36.233 27.538 40.4 63.046 26.631l14.856-5.797 12.32 10.145a209.973 209.973 0 0 1 27.718 27.538l10.145 12.32-5.797 14.855c-13.769 36.233-9.058 46.741 26.631 63.046l14.313 6.522 1.449 15.58A193.75 193.75 0 0 1 942 755.594c0 7.006-0.362 13.89-1.087 20.654l-1.45 15.58-14.312 6.522c-36.233 16.305-40.4 27.537-26.631 63.046l5.797 14.856-10.145 12.32a209.973 209.973 0 0 1-27.537 27.536l-12.32 10.146-14.856-5.798c-36.233-13.768-46.74-9.058-63.046 26.632l-6.522 14.312-15.58 1.45c-6.764 0.241-13.467 0.362-20.11 0.362z m0-54.35c25.001-44.205 59.786-58.88 107.614-45.473-13.407-47.828 1.268-82.612 45.473-107.613v-1.812c-44.386-25.001-58.517-58.88-44.386-107.613-48.553 12.5-83.337-1.268-108.7-45.473h-1.812c-25.001 44.205-59.785 58.88-107.614 45.473 13.407 47.828-1.268 82.612-45.472 107.613v1.812c44.204 25 58.879 59.785 45.472 107.613 48.19-13.225 82.975 1.268 107.976 45.473h1.45z" fill="#2c2c2c" p-id="244618"></path><path d="M734.201 836.395c-45.025 0-81.525-36.5-81.525-81.525 0-45.025 36.5-81.525 81.525-81.525 45.025 0 81.526 36.5 81.526 81.525 0 45.025-36.5 81.525-81.526 81.525z m0-108.7c-15.008 0-27.175 12.166-27.175 27.175 0 15.008 12.167 27.175 27.175 27.175 15.009 0 27.175-12.167 27.175-27.175a27.175 27.175 0 0 0-27.175-27.175z" fill="#2c2c2c" p-id="244619"></path></svg>