<svg t="1785150097317" class="icon" viewBox="0 0 1024 1024" version="1.1" xmlns="http://www.w3.org/2000/svg" p-id="3041" width="200" height="200"><path d="M144 928.05c0-10.86 2.62-38.54 5.12-54.05 9.64-59.77 34.84-117.66 72.24-165.91 26.57-34.29 57.39-62.4 94.64-86.31 12.61-8.1 31.45-18.3 43.16-23.38 5.69-2.46 11.24-4.9 12.34-5.41 8.12-3.78 25.94-10.01 39.5-13.8 24.98-7 40.37-9.92 69.57-13.18 13.62-1.52 52.8-1.24 68.43 0.49 17.07 1.88 27.93 3.34 28.81 3.87 0.38 0.23 2.72 0.69 5.2 1.02 13.05 1.74 49.59 12.37 65.49 19.05 1.65 0.69 4.58 1.85 6.5 2.57 6.34 2.37 33.33 15.73 42.5 21.03 43.22 24.98 81.17 58.81 111.6 99.46 32.32 43.17 55.02 93.89 65.34 146 4.44 22.4 6.33 37.69 7.2 58.25l0.64 15.25H849l-0.02-10.75c-0.05-27.28-7.01-65.66-17.58-97-5.61-16.62-15.72-39.38-24.09-54.25-29.59-52.55-68.91-93.45-120.44-125.28-17.94-11.08-50.83-25.95-72.37-32.71-29.89-9.38-71.93-16-101.5-15.98-18.6 0.02-54.27 4.03-70.75 7.96-2.34 0.55-6.39 1.51-9 2.13-26.66 6.3-58.75 18.87-83.39 32.66-54.62 30.58-101.78 78.05-131.37 132.22-25.05 45.88-38.61 94.19-41.04 146.25l-0.69 14.75H144v-4.95z m348-418.57c-44.56-5.31-84.98-25.12-115.57-56.61-27.91-28.75-45.31-62.75-52.11-101.87-2.58-14.88-2.57-49.25 0.03-64 12.54-71.26 64.15-129.74 133.15-150.88 5.5-1.68 11.54-3.32 13.42-3.63 1.87-0.32 3.67-0.74 4-0.94 0.32-0.19 3.06-0.66 6.08-1.04 3.02-0.37 7.7-1.09 10.39-1.6 7.49-1.4 36.93-1.05 47.54 0.56 33.99 5.17 63.4 17.54 91.57 38.49 9.07 6.75 28.18 26.35 36.11 37.04 21.24 28.61 33.2 59.76 37.32 97.19 1.43 12.92 1.32 21.81-0.43 36.81-6.49 55.71-33.85 102.95-78.5 135.56-19.55 14.27-46.55 26.4-70.07 31.46-21.79 4.68-42.92 5.85-62.93 3.46z m47.04-33.49c8.92-1.76 25.39-6.21 26.41-7.13 0.52-0.47 1.67-0.86 2.56-0.86 3.07 0 27.55-12.85 36.49-19.15 11.16-7.87 30.09-26.67 37.76-37.48 11.37-16.03 20.08-35.08 24.87-54.37 6.55-26.43 6.06-53.98-1.48-81.6-8-29.33-27.71-59.2-52.15-79.04-28.8-23.37-63.43-35.58-100.5-35.42-28.91 0.12-52.44 6.23-77.51 20.12-30.69 17-56.22 46.22-69.75 79.83-9.09 22.58-13.56 52.54-10.77 72.11 0.51 3.57 1.14 8.34 1.4 10.6 0.27 2.25 1.4 7.98 2.53 12.73 7.8 32.82 28.06 64.94 53.98 85.55 26.39 21 52.02 31.58 86.12 35.54 6.07 0.71 34.34-0.3 40.04-1.43z m66.05-215.37c-2.65-10.04-7.45-18.42-15.07-26.29-8.81-9.11-15.49-12.88-31.68-17.84-1.31-0.4 0.29-8.49 1.68-8.49 0.42 0 3.85 0.95 7.62 2.11 22 6.79 36.82 21.18 44.49 43.22 3.35 9.62 3.73 14.66 1.12 14.68-0.96 0.01-2.69 0.27-3.83 0.58-1.87 0.5-2.3-0.29-4.33-7.97z" p-id="3042" fill="#2c2c2c"></path></svg>